SplineFontDB: 3.0
FontName: SUSE-Docudings
FullName: SUSE Docudings
FamilyName: SUSE Docudings
Weight: Medium
Copyright: Font: (c) Stefan Knorr, <sknorr@suse.de>, 2013.\n\nThe characters "G" and "S" contain symbols trademarked by SUSE. Their use is permitted only on SUSE official communications.\n\nSome characters contain modified parts by other authors:\n"B" - Released under CC0 by Geoff Rogers/the Noun Project.\n"I", u+2460 to u+2473 - (c) Steve Matteson/Google. Used under Apache License 2.0.\n"N" - (c) Marie Coons/the Noun Project. Used under CC-BY 3.0.\n"T" - (c) Olivier Guin/the Noun Project. Used under CC-BY 3.0.\n"W"/"C" - Released under CC0 by Megan Strickland/the Noun Project.
UComments: "Font containing various icons that are useful for SUSE Documentation." 
Version: 0.3
ItalicAngle: 0
UnderlinePosition: -174
UnderlineWidth: 184
Ascent: 1556
Descent: 492
LayerCount: 2
Layer: 0 0 "Back"  1
Layer: 1 0 "Fore"  0
XUID: [1021 778 1773590411 1202135]
FSType: 0
OS2Version: 0
OS2_WeightWidthSlopeOnly: 0
OS2_UseTypoMetrics: 1
CreationTime: 1361811037
ModificationTime: 1362062492
PfmFamily: 81
TTFWeight: 500
TTFWidth: 5
LineGap: 377
VLineGap: 0
OS2TypoAscent: 0
OS2TypoAOffset: 1
OS2TypoDescent: 0
OS2TypoDOffset: 1
OS2TypoLinegap: 377
OS2WinAscent: 0
OS2WinAOffset: 1
OS2WinDescent: 0
OS2WinDOffset: 1
HheadAscent: 0
HheadAOffset: 1
HheadDescent: 0
HheadDOffset: 1
OS2FamilyClass: 3072
OS2Vendor: 'SUSE'
MarkAttachClasses: 1
DEI: 91125
LangName: 1033 
GaspTable: 2 8 2 65535 3 0
Encoding: UnicodeBmp
UnicodeInterp: none
NameList: Adobe Glyph List
DisplaySize: -96
AntiAlias: 1
FitToEm: 1
WinInfo: 8576 8 6
BeginPrivate: 0
EndPrivate
TeXData: 1 0 0 1292894 646447 430965 1172308 -2147484 430965 783286 444596 497025 792723 393216 433062 380633 303038 157286 324010 404750 52429 2506097 1059062 262144
BeginChars: 65536 34

StartChar: uni2460
Encoding: 9312 9312 0
Width: 1233
VWidth: 0
Flags: W
HStem: 0 57<449.972 782.128> 1076 57<463.165 782.128>
VStem: 50 57<399.972 724.659> 613 67<263 797> 1126 57<399.972 732.128>
LayerCount: 2
Fore
SplineSet
616 1133 m 0
 929 1133 1183 879 1183 566 c 0
 1183 253 929 0 616 0 c 0
 303 0 50 253 50 566 c 0
 50 879 303 1133 616 1133 c 0
616 1076 m 0
 337 1072 107 845 107 566 c 0
 107 284 334 57 616 57 c 0
 898 57 1126 284 1126 566 c 0
 1126 848 898 1076 616 1076 c 0
622 870 m 1
 680 870 l 1
 680 263 l 1
 613 263 l 1
 613 695 l 2
 613 731 614 765 616 797 c 1
 610 791 604 785 597 779 c 0
 590 773 557 746 498 698 c 1
 462 746 l 1
 622 870 l 1
EndSplineSet
Validated: 1
EndChar

StartChar: uni2461
Encoding: 9313 9313 1
Width: 1233
VWidth: 0
Flags: W
HStem: 0 57<449.972 782.128> 263 64<509 822> 820 59<506.561 695.321> 1076 57<449.972 782.128>
VStem: 50 57<399.972 732.128> 725 71<604.373 793.771> 1126 57<399.972 732.128>
LayerCount: 2
Fore
SplineSet
616 1133 m 0
 929 1133 1183 879 1183 566 c 0
 1183 253 929 0 616 0 c 0
 303 0 50 253 50 566 c 0
 50 879 303 1133 616 1133 c 0
616 1076 m 0
 334 1076 107 848 107 566 c 0
 107 284 334 57 616 57 c 0
 898 57 1126 284 1126 566 c 0
 1126 848 898 1076 616 1076 c 0
613 879 m 0
 670 879 715 864 747 835 c 0
 779 806 796 767 796 718 c 0
 796 680 786 642 764 604 c 0
 742 566 701 519 642 461 c 2
 509 331 l 1
 509 327 l 1
 822 327 l 1
 822 263 l 1
 423 263 l 1
 423 323 l 1
 582 484 l 2
 631 533 663 568 679 589 c 0
 695 610 706 631 714 651 c 0
 722 671 725 692 725 715 c 0
 725 747 716 773 696 792 c 0
 676 811 649 820 614 820 c 0
 589 820 565 816 542 808 c 0
 520 800 495 785 467 763 c 1
 430 810 l 1
 486 857 547 879 613 879 c 0
EndSplineSet
Validated: 1
EndChar

StartChar: uni2462
Encoding: 9314 9314 2
Width: 1233
VWidth: 0
Flags: W
HStem: 0 57<449.972 782.128> 252 59<465.897 727.864> 546 60<535 707.681> 820 59<518.511 721.983> 1076 57<449.972 782.128>
VStem: 50 57<399.972 732.128> 751 72<642.024 796.344> 770 72<345.749 511.314> 1126 57<399.972 732.128>
LayerCount: 2
Fore
SplineSet
616 1133 m 0xfc80
 929 1133 1183 879 1183 566 c 0
 1183 253 929 0 616 0 c 0
 303 0 50 253 50 566 c 0
 50 879 303 1133 616 1133 c 0xfc80
616 1076 m 0
 334 1076 107 848 107 566 c 0
 107 284 334 57 616 57 c 0
 898 57 1126 284 1126 566 c 0
 1126 848 898 1076 616 1076 c 0
635 879 m 0
 694 879 741 865 774 838 c 0
 807 811 823 774 823 727 c 0xfe80
 823 688 812 656 790 631 c 0
 768 606 737 590 697 582 c 1
 697 578 l 1
 746 572 782 557 806 532 c 0
 830 507 842 474 842 433 c 0
 842 375 821 330 781 299 c 0
 741 268 683 252 609 252 c 0
 577 252 547 255 520 260 c 0
 493 265 467 273 442 285 c 1
 442 351 l 1
 468 338 497 328 527 321 c 0
 557 314 585 311 612 311 c 0
 717 311 770 352 770 435 c 0xfd80
 770 509 711 546 595 546 c 2
 535 546 l 1
 535 606 l 1
 596 606 l 2
 644 606 681 616 709 637 c 0
 737 658 751 688 751 725 c 0xfe80
 751 755 741 778 720 795 c 0
 700 812 672 820 637 820 c 0
 610 820 586 816 562 809 c 0
 538 802 511 788 481 769 c 1
 446 816 l 1
 471 836 499 851 532 862 c 0
 565 873 599 879 635 879 c 0
EndSplineSet
Validated: 1
EndChar

StartChar: uni2463
Encoding: 9315 9315 3
Width: 1233
VWidth: 0
Flags: W
HStem: -0 57<449.972 782.128> 402 62<421 646 711 800> 1076 57<449.972 782.128>
VStem: 50 57<399.972 732.128> 646 65<263 402 464 797> 1126 57<399.972 732.128>
LayerCount: 2
Fore
SplineSet
616 1133 m 0
 929 1133 1183 879 1183 566 c 0
 1183 253 929 0 616 -0 c 0
 303 0 50 253 50 566 c 0
 50 879 303 1133 616 1133 c 0
616 1076 m 0
 334 1076 107 848 107 566 c 0
 107 284 334 57 616 57 c 0
 898 57 1126 284 1126 566 c 0
 1126 848 898 1076 616 1076 c 0
639 868 m 1
 711 868 l 1
 711 464 l 1
 800 464 l 1
 800 402 l 1
 711 402 l 1
 711 263 l 1
 646 263 l 1
 646 402 l 1
 353 402 l 1
 353 461 l 1
 639 868 l 1
646 797 m 1
 633 771 621 748 609 731 c 2
 421 464 l 1
 646 464 l 1
 646 664 l 2
 646 703 647 748 650 797 c 1
 646 797 l 1
EndSplineSet
Validated: 1
EndChar

StartChar: uni2464
Encoding: 9316 9316 4
Width: 1233
VWidth: 0
Flags: W
HStem: 0 57<449.972 782.128> 252 60<475.282 724.822> 573 59<541.406 727.503> 805 63<556 799> 1076 57<449.972 782.128>
VStem: 50 57<399.972 732.128> 771 71<351.806 537.421> 1126 57<399.972 732.128>
LayerCount: 2
Fore
SplineSet
616 1133 m 0
 929 1133 1183 879 1183 566 c 0
 1183 253 929 0 616 0 c 0
 303 0 50 253 50 566 c 0
 50 879 303 1133 616 1133 c 0
616 1076 m 0
 334 1076 107 848 107 566 c 0
 107 284 334 57 616 57 c 0
 898 57 1126 284 1126 566 c 0
 1126 848 898 1076 616 1076 c 0
497 868 m 1
 799 868 l 1
 799 805 l 1
 556 805 l 1
 540 622 l 1
 572 628 604 632 636 632 c 0
 700 632 749 616 786 584 c 0
 823 552 842 509 842 454 c 0
 842 391 821 342 781 306 c 0
 741 270 686 252 616 252 c 0
 548 252 495 263 459 285 c 1
 459 351 l 1
 478 339 503 329 532 322 c 0
 561 315 589 312 617 312 c 0
 666 312 703 323 730 346 c 0
 757 369 771 402 771 446 c 0
 771 531 719 573 615 573 c 0
 589 573 554 569 510 561 c 1
 474 584 l 1
 497 868 l 1
EndSplineSet
Validated: 1
EndChar

StartChar: uni2465
Encoding: 9317 9317 5
Width: 1233
VWidth: 0
Flags: W
HStem: 0 57<449.972 782.128> 252 59<542.949 706.408> 586 55<537.272 708.711> 822 57<584.073 768> 1076 57<449.972 782.128>
VStem: 50 57<399.972 732.128> 417 71<361.711 725.636> 747 69<348.75 552.277> 1126 57<399.972 732.128>
LayerCount: 2
Fore
SplineSet
616 1133 m 0
 929 1133 1183 879 1183 566 c 0
 1183 253 929 0 616 0 c 0
 303 0 50 253 50 566 c 0
 50 879 303 1133 616 1133 c 0
616 1076 m 0
 334 1076 107 848 107 566 c 0
 107 284 334 57 616 57 c 0
 898 57 1126 284 1126 566 c 0
 1126 848 898 1076 616 1076 c 0
694 879 m 0
 725 879 750 877 768 872 c 1
 768 812 l 1
 747 819 723 822 695 822 c 0
 630 822 580 802 545 761 c 0
 510 720 491 656 488 569 c 1
 493 569 l 1
 524 617 573 641 639 641 c 0
 694 641 737 624 768 591 c 0
 800 558 816 513 816 456 c 0
 816 393 798 342 763 306 c 0
 728 270 682 252 623 252 c 0
 560 252 510 276 473 323 c 0
 436 371 417 436 417 521 c 0
 417 641 441 731 487 790 c 0
 534 850 603 879 694 879 c 0
626 586 m 0
 601 586 578 581 557 571 c 0
 536 561 520 546 507 528 c 0
 495 510 488 491 488 472 c 0
 488 443 494 417 505 392 c 0
 516 367 532 347 552 333 c 0
 573 319 596 311 622 311 c 0
 662 311 692 323 714 348 c 0
 736 373 747 409 747 456 c 0
 747 496 737 528 717 551 c 0
 697 574 666 586 626 586 c 0
EndSplineSet
Validated: 1
EndChar

StartChar: uni2466
Encoding: 9318 9318 6
Width: 1233
VWidth: 0
Flags: W
HStem: 0 57<449.972 782.128> 805 63<432 762> 1076 57<449.972 782.128>
VStem: 50 57<399.972 732.128> 1126 57<399.972 732.128>
LayerCount: 2
Fore
SplineSet
616 1133 m 0
 929 1133 1183 879 1183 566 c 0
 1183 253 929 0 616 0 c 0
 303 0 50 253 50 566 c 0
 50 879 303 1133 616 1133 c 0
616 1076 m 0
 334 1076 107 848 107 566 c 0
 107 284 334 57 616 57 c 0
 898 57 1126 284 1126 566 c 0
 1126 848 898 1076 616 1076 c 0
432 868 m 1
 835 868 l 1
 835 813 l 1
 587 263 l 1
 511 263 l 1
 762 805 l 1
 432 805 l 1
 432 868 l 1
EndSplineSet
Validated: 1
EndChar

StartChar: uni2467
Encoding: 9319 9319 7
Width: 1233
VWidth: 0
Flags: W
HStem: 0 57<449.972 782.128> 252 56<519.584 710.607> 823 56<533.599 699.671> 1076 57<449.972 782.128>
VStem: 50 57<399.972 732.128> 416 68<337.274 497.118> 436 68<656.92 798.75> 729 68<655.439 799.189> 749 68<338.919 490.027> 1126 57<399.972 732.128>
LayerCount: 2
Fore
SplineSet
616 1133 m 0xf840
 929 1133 1183 879 1183 566 c 0
 1183 253 929 0 616 0 c 0
 303 0 50 253 50 566 c 0
 50 879 303 1133 616 1133 c 0xf840
616 1076 m 0
 334 1076 107 848 107 566 c 0
 107 284 334 57 616 57 c 0
 898 57 1126 284 1126 566 c 0
 1126 848 898 1076 616 1076 c 0
616 879 m 0
 672 879 716 867 749 841 c 0xfac0
 782 815 797 779 797 733 c 0xf940
 797 703 788 676 769 651 c 0
 750 626 721 604 680 584 c 1
 730 560 765 535 786 509 c 0
 807 483 817 453 817 419 c 0
 817 368 799 327 764 297 c 0
 729 267 681 252 619 252 c 0
 554 252 504 267 469 295 c 0
 434 324 416 364 416 416 c 0xfcc0
 416 486 459 540 544 579 c 1
 506 601 478 624 461 649 c 0
 444 674 436 703 436 734 c 0xfa40
 436 778 452 814 485 840 c 0
 518 866 561 879 616 879 c 0
615 823 m 0
 580 823 554 815 534 798 c 0
 514 781 504 759 504 731 c 0
 504 705 513 683 529 665 c 0
 545 647 576 628 620 610 c 1
 660 627 688 645 704 664 c 0
 721 683 729 705 729 731 c 0xfb40
 729 759 719 782 699 798 c 0
 679 815 650 823 615 823 c 0
603 551 m 1
 562 533 531 514 512 492 c 0
 493 471 484 444 484 414 c 0
 484 381 496 355 519 336 c 0
 542 317 575 308 617 308 c 0
 658 308 691 319 714 338 c 0
 737 357 749 384 749 418 c 0xfcc0
 749 445 738 469 716 490 c 0
 694 511 657 531 603 551 c 1
EndSplineSet
Validated: 1
EndChar

StartChar: uni2468
Encoding: 9320 9320 8
Width: 1233
VWidth: 0
Flags: W
HStem: 0 57<449.972 782.128> 252 57<484 671.071> 490 56<544.594 719.182> 820 59<550.026 713.571> 1076 57<449.972 782.128>
VStem: 50 57<399.972 732.128> 440 68<578.847 781.005> 768 70<406.03 770.577> 1126 57<399.972 732.128>
LayerCount: 2
Fore
SplineSet
616 1133 m 0
 929 1133 1183 879 1183 566 c 0
 1183 253 929 0 616 0 c 0
 303 0 50 253 50 566 c 0
 50 879 303 1133 616 1133 c 0
616 1076 m 0
 334 1076 107 848 107 566 c 0
 107 284 334 57 616 57 c 0
 898 57 1126 284 1126 566 c 0
 1126 848 898 1076 616 1076 c 0
633 879 m 0
 674 879 711 868 742 847 c 0
 773 826 796 795 813 754 c 0
 830 713 838 665 838 610 c 0
 838 371 746 252 561 252 c 0
 529 252 503 254 484 260 c 1
 484 320 l 1
 506 313 532 309 560 309 c 0
 627 309 678 330 712 371 c 0
 746 412 765 476 768 561 c 1
 763 561 l 1
 748 538 727 520 702 508 c 0
 677 496 648 490 616 490 c 0
 562 490 519 507 487 539 c 0
 455 571 440 616 440 674 c 0
 440 737 458 787 493 824 c 0
 529 861 575 879 633 879 c 0
633 820 m 0
 593 820 563 808 541 782 c 0
 519 756 508 721 508 675 c 0
 508 635 518 603 538 580 c 0
 558 557 589 546 630 546 c 0
 655 546 678 551 699 561 c 0
 720 571 738 586 750 604 c 0
 762 622 768 641 768 660 c 0
 768 689 762 716 751 741 c 0
 740 766 724 785 703 799 c 0
 683 813 659 820 633 820 c 0
EndSplineSet
Validated: 1
EndChar

StartChar: uni2469
Encoding: 9321 9321 9
Width: 1233
VWidth: 0
Flags: W
HStem: -4 57<449.972 782.128> 248 60<720.232 874.838> 816 60<721.162 873.877> 1072 57<449.972 782.128>
VStem: 50 57<396.872 729.028> 404 68<257 791.499> 597 70<366.665 756.815> 929 71<365.98 755.646> 1126 57<396.872 729.028>
LayerCount: 2
Fore
SplineSet
616 1129 m 0
 929 1129 1183 876 1183 563 c 0
 1183 250 929 -4 616 -4 c 0
 303 -4 50 250 50 563 c 0
 50 876 303 1129 616 1129 c 0
616 1072 m 0
 334 1072 107 845 107 563 c 0
 107 281 334 53 616 53 c 0
 898 53 1126 281 1126 563 c 0
 1126 845 898 1072 616 1072 c 0
798 876 m 0
 864 876 914 849 948 795 c 0
 982 741 1000 664 1000 562 c 0
 1000 457 983 378 950 326 c 0
 917 274 866 248 798 248 c 0
 732 248 682 275 648 328 c 0
 614 381 597 459 597 562 c 0
 597 668 613 747 646 798 c 0
 679 849 730 876 798 876 c 0
413 866 m 1
 472 866 l 1
 472 257 l 1
 404 257 l 1
 404 691 l 2
 404 727 406 761 408 793 c 1
 402 787 395 781 388 775 c 0
 381 769 348 742 289 694 c 1
 252 741 l 1
 413 866 l 1
798 816 m 0
 752 816 719 795 698 755 c 0
 677 715 667 651 667 562 c 0
 667 473 677 409 698 368 c 0
 719 328 752 308 798 308 c 0
 844 308 877 328 898 369 c 0
 919 410 929 474 929 562 c 0
 929 650 919 713 898 754 c 0
 877 795 844 816 798 816 c 0
EndSplineSet
Validated: 1
EndChar

StartChar: uni246A
Encoding: 9322 9322 10
Width: 1233
VWidth: 0
Flags: W
HStem: -4 57<449.972 782.128> 1072 57<449.972 782.128>
VStem: 50 57<396.872 729.028> 421 69<260 805> 795 69<260 805> 1126 57<396.872 729.028>
LayerCount: 2
Fore
SplineSet
616 1129 m 0
 929 1129 1183 876 1183 563 c 0
 1183 250 929 -4 616 -4 c 0
 303 -4 50 250 50 563 c 0
 50 876 303 1129 616 1129 c 0
616 1072 m 0
 334 1072 107 845 107 563 c 0
 107 281 334 53 616 53 c 0
 898 53 1126 281 1126 563 c 0
 1126 845 898 1072 616 1072 c 0
430 878 m 1
 490 878 l 1
 490 260 l 1
 421 260 l 1
 421 701 l 2
 421 738 422 772 424 805 c 1
 418 799 411 792 404 786 c 0
 397 780 364 753 304 704 c 1
 266 752 l 1
 430 878 l 1
804 878 m 1
 864 878 l 1
 864 260 l 1
 795 260 l 1
 795 701 l 2
 795 738 796 772 798 805 c 1
 792 799 785 792 778 786 c 0
 771 780 738 753 678 704 c 1
 640 752 l 1
 804 878 l 1
EndSplineSet
Validated: 1
EndChar

StartChar: uni246B
Encoding: 9323 9323 11
Width: 1233
VWidth: 0
Flags: W
HStem: -10 57<449.972 782.128> 254 64<651 963> 811 59<650.562 835.796> 1067 56<456.656 775.437>
VStem: 50 57<390.872 723.082> 385 67<254 789> 867 71<597.052 783.224> 1126 57<390.872 723.082>
LayerCount: 2
Fore
SplineSet
616 1123 m 0
 929 1123 1183 870 1183 557 c 0
 1183 244 929 -10 616 -10 c 0
 303 -10 50 244 50 557 c 0
 50 870 303 1123 616 1123 c 0
616 1067 m 0
 334 1067 107 839 107 557 c 0
 107 275 334 47 616 47 c 0
 898 47 1126 275 1126 557 c 0
 1126 839 898 1067 616 1067 c 0
755 870 m 0
 812 870 857 855 889 826 c 0
 921 797 938 757 938 708 c 0
 938 670 927 632 905 594 c 0
 883 556 843 509 784 451 c 2
 651 321 l 1
 651 318 l 1
 963 318 l 1
 963 254 l 1
 564 254 l 1
 564 313 l 1
 724 474 l 2
 773 523 804 559 820 580 c 0
 836 601 847 621 855 641 c 0
 863 661 867 682 867 705 c 0
 867 737 857 763 837 782 c 0
 817 801 791 811 756 811 c 0
 731 811 707 807 684 799 c 0
 662 791 637 775 609 753 c 1
 572 800 l 1
 628 847 689 870 755 870 c 0
394 861 m 1
 452 861 l 1
 452 254 l 1
 385 254 l 1
 385 687 l 2
 385 723 386 757 388 789 c 1
 382 783 376 777 369 771 c 0
 362 765 329 738 270 690 c 1
 233 737 l 1
 394 861 l 1
EndSplineSet
Validated: 1
EndChar

StartChar: uni246C
Encoding: 9324 9324 12
Width: 1233
VWidth: 0
Flags: W
HStem: 0 57<449.972 782.128> 252 59<594.73 855.004> 546 60<664 836.681> 820 59<646.511 850.675> 1076 57<449.972 782.128>
VStem: 50 57<399.972 732.128> 395 68<260 796.498> 880 71<643.025 795.806> 898 72<345.749 512.276> 1126 57<399.972 732.128>
LayerCount: 2
Fore
SplineSet
616 1133 m 0xfe40
 929 1133 1183 879 1183 566 c 0
 1183 253 929 0 616 0 c 0
 303 0 50 253 50 566 c 0
 50 879 303 1133 616 1133 c 0xfe40
616 1076 m 0
 334 1076 107 848 107 566 c 0
 107 284 334 57 616 57 c 0
 898 57 1126 284 1126 566 c 0
 1126 848 898 1076 616 1076 c 0
764 879 m 0
 823 879 869 866 902 839 c 0
 935 812 951 774 951 727 c 0xff40
 951 688 940 657 918 632 c 0
 896 607 866 590 826 582 c 1
 826 579 l 1
 875 573 911 557 935 532 c 0
 959 507 970 474 970 433 c 0
 970 375 950 330 910 299 c 0
 870 268 812 252 738 252 c 0
 706 252 676 255 649 260 c 0
 622 265 596 273 571 285 c 1
 571 351 l 1
 597 338 625 328 655 321 c 0
 685 314 713 311 740 311 c 0
 845 311 898 352 898 435 c 0xfec0
 898 509 840 546 724 546 c 2
 664 546 l 1
 664 606 l 1
 725 606 l 2
 773 606 810 616 838 637 c 0
 866 658 880 688 880 725 c 0xff40
 880 755 870 778 849 795 c 0
 829 812 801 820 766 820 c 0
 739 820 714 816 690 809 c 0
 666 802 639 788 609 769 c 1
 574 816 l 1
 599 836 627 851 660 862 c 0
 693 873 728 879 764 879 c 0
405 871 m 1
 463 871 l 1
 463 260 l 1
 395 260 l 1
 395 695 l 2
 395 731 397 766 399 798 c 1
 393 792 386 786 379 780 c 0
 372 774 339 746 280 698 c 1
 243 746 l 1
 405 871 l 1
EndSplineSet
Validated: 1
EndChar

StartChar: uni246D
Encoding: 9325 9325 13
Width: 1233
VWidth: 0
Flags: W
HStem: 0 57<449.972 782.128> 402 62<627 851 917 1006> 1076 57<449.972 782.128>
VStem: 50 57<399.972 732.128> 380 67<263 793> 851 66<263 402 464 797> 1126 57<399.972 732.128>
LayerCount: 2
Fore
SplineSet
616 1133 m 0
 929 1133 1183 879 1183 566 c 0
 1183 253 929 0 616 0 c 0
 303 0 50 253 50 566 c 0
 50 879 303 1133 616 1133 c 0
616 1076 m 0
 334 1076 107 848 107 566 c 0
 107 284 334 57 616 57 c 0
 898 57 1126 284 1126 566 c 0
 1126 848 898 1076 616 1076 c 0
844 868 m 1
 917 868 l 1
 917 464 l 1
 1006 464 l 1
 1006 402 l 1
 917 402 l 1
 917 263 l 1
 851 263 l 1
 851 402 l 1
 559 402 l 1
 559 461 l 1
 844 868 l 1
389 865 m 1
 447 865 l 1
 447 263 l 1
 380 263 l 1
 380 692 l 2
 380 728 381 761 383 793 c 1
 377 787 371 781 364 775 c 0
 357 769 324 742 266 695 c 1
 230 742 l 1
 389 865 l 1
852 797 m 1
 839 771 827 748 815 731 c 2
 627 464 l 1
 851 464 l 1
 851 664 l 2
 851 703 852 748 855 797 c 1
 852 797 l 1
EndSplineSet
Validated: 1
EndChar

StartChar: uni246E
Encoding: 9326 9326 14
Width: 1233
VWidth: 0
Flags: W
HStem: 0 57<449.972 782.128> 252 60<611.195 860.816> 573 59<676.984 863.288> 805 63<691 935> 1076 57<449.972 782.128>
VStem: 50 57<399.972 732.128> 385 67<260 796> 907 70<351.806 537.421> 1126 57<399.972 732.128>
LayerCount: 2
Fore
SplineSet
616 1133 m 0
 929 1133 1183 879 1183 566 c 0
 1183 253 929 0 616 0 c 0
 303 0 50 253 50 566 c 0
 50 879 303 1133 616 1133 c 0
616 1076 m 0
 334 1076 107 848 107 566 c 0
 107 284 334 57 616 57 c 0
 898 57 1126 284 1126 566 c 0
 1126 848 898 1076 616 1076 c 0
394 868 m 1
 452 868 l 1
 452 260 l 1
 385 260 l 1
 385 694 l 2
 385 730 386 764 388 796 c 1
 382 790 375 784 368 778 c 0
 361 772 329 744 270 696 c 1
 233 744 l 1
 394 868 l 1
632 868 m 1
 935 868 l 1
 935 805 l 1
 691 805 l 1
 676 622 l 1
 708 628 739 632 771 632 c 0
 835 632 885 616 922 584 c 0
 959 552 977 509 977 454 c 0
 977 391 957 342 917 306 c 0
 877 270 822 252 752 252 c 0
 684 252 631 263 595 285 c 1
 595 351 l 1
 614 339 638 329 667 322 c 0
 696 315 724 312 752 312 c 0
 801 312 839 323 866 346 c 0
 893 369 907 402 907 446 c 0
 907 531 855 573 751 573 c 0
 725 573 689 569 645 561 c 1
 609 584 l 1
 632 868 l 1
EndSplineSet
Validated: 1
EndChar

StartChar: uni246F
Encoding: 9327 9327 15
Width: 1233
VWidth: 0
Flags: W
HStem: 0 57<449.972 782.128> 252 59<698.949 862.408> 586 55<693.272 864.711> 822 57<740.073 924> 1076 57<449.972 782.128>
VStem: 50 57<399.972 732.128> 394 68<260 798> 573 71<361.711 725.636> 903 69<348.75 552.277> 1126 57<399.972 732.128>
LayerCount: 2
Fore
SplineSet
616 1133 m 0
 929 1133 1183 879 1183 566 c 0
 1183 253 929 0 616 0 c 0
 303 0 50 253 50 566 c 0
 50 879 303 1133 616 1133 c 0
616 1076 m 0
 334 1076 107 848 107 566 c 0
 107 284 334 57 616 57 c 0
 898 57 1126 284 1126 566 c 0
 1126 848 898 1076 616 1076 c 0
850 879 m 0
 881 879 906 877 924 872 c 1
 924 812 l 1
 903 819 879 822 851 822 c 0
 786 822 736 802 701 761 c 0
 666 720 647 656 644 569 c 1
 649 569 l 1
 680 617 729 641 795 641 c 0
 850 641 893 624 924 591 c 0
 956 558 972 513 972 456 c 0
 972 393 954 342 919 306 c 0
 884 270 838 252 779 252 c 0
 716 252 666 276 629 323 c 0
 592 371 573 436 573 521 c 0
 573 641 597 731 643 790 c 0
 690 850 759 879 850 879 c 0
403 871 m 1
 462 871 l 1
 462 260 l 1
 394 260 l 1
 394 695 l 2
 394 731 395 766 397 798 c 1
 391 792 385 786 378 780 c 0
 371 774 337 746 278 698 c 1
 242 746 l 1
 403 871 l 1
782 586 m 0
 757 586 734 581 713 571 c 0
 692 561 676 546 663 528 c 0
 651 510 644 491 644 472 c 0
 644 443 650 417 661 392 c 0
 672 367 688 347 708 333 c 0
 729 319 752 311 778 311 c 0
 818 311 848 323 870 348 c 0
 892 373 903 409 903 456 c 0
 903 496 893 528 873 551 c 0
 853 574 822 586 782 586 c 0
EndSplineSet
Validated: 1
EndChar

StartChar: uni2470
Encoding: 9328 9328 16
Width: 1233
VWidth: 0
Flags: W
HStem: 0 57<449.972 782.128> 825 66<541 883> 1076 57<449.972 782.128>
VStem: 50 57<399.972 732.128> 374 70<263 814.452> 1126 57<399.972 732.128>
LayerCount: 2
Fore
SplineSet
616 1133 m 0
 929 1133 1183 879 1183 566 c 0
 1183 253 929 0 616 0 c 0
 303 0 50 253 50 566 c 0
 50 879 303 1133 616 1133 c 0
616 1076 m 0
 334 1076 107 848 107 566 c 0
 107 284 334 57 616 57 c 0
 898 57 1126 284 1126 566 c 0
 1126 848 898 1076 616 1076 c 0
384 891 m 1
 444 891 l 1
 444 263 l 1
 374 263 l 1
 374 711 l 2
 374 748 376 783 378 816 c 1
 372 810 365 804 358 797 c 0
 351 790 316 763 255 714 c 1
 218 763 l 1
 384 891 l 1
541 891 m 1
 959 891 l 1
 959 834 l 1
 702 263 l 1
 623 263 l 1
 883 825 l 1
 541 825 l 1
 541 891 l 1
EndSplineSet
Validated: 1
EndChar

StartChar: uni2471
Encoding: 9329 9329 17
Width: 1233
VWidth: 0
Flags: W
HStem: 0 57<449.972 782.128> 252 56<664.196 854.404> 823 56<675.804 842.863> 1076 57<449.972 782.128>
VStem: 50 57<399.972 732.128> 377 68<260 796.498> 560 68<337.274 497.118> 580 68<660.991 799.552> 873 68<655.439 798.371> 892 69<338.919 491.665> 1126 57<399.972 732.128>
LayerCount: 2
Fore
SplineSet
616 1133 m 0xfc20
 929 1133 1183 879 1183 566 c 0
 1183 253 929 0 616 0 c 0
 303 0 50 253 50 566 c 0
 50 879 303 1133 616 1133 c 0xfc20
616 1076 m 0
 334 1076 107 848 107 566 c 0
 107 284 334 57 616 57 c 0
 898 57 1126 284 1126 566 c 0
 1126 848 898 1076 616 1076 c 0
760 879 m 0
 816 879 859 867 892 841 c 0xfe60
 925 815 941 779 941 733 c 0xfca0
 941 703 932 676 913 651 c 0
 894 626 865 604 824 584 c 1
 874 560 908 535 929 509 c 0
 950 483 961 453 961 419 c 0
 961 368 943 327 908 297 c 0
 873 267 824 252 762 252 c 0
 697 252 647 267 612 295 c 0
 577 324 560 364 560 416 c 0xfe60
 560 486 602 540 687 579 c 1
 649 601 622 624 605 649 c 0
 588 674 580 703 580 734 c 0xfd20
 580 778 595 814 628 840 c 0xfe20
 661 866 705 879 760 879 c 0
386 871 m 1
 445 871 l 1
 445 260 l 1
 377 260 l 1
 377 695 l 2
 377 731 379 766 381 798 c 1
 375 792 368 786 361 780 c 0
 354 774 321 746 262 698 c 1
 225 746 l 1
 386 871 l 1
759 823 m 0
 724 823 697 815 677 798 c 0
 657 781 648 759 648 731 c 0
 648 705 656 683 672 665 c 0
 688 647 719 628 763 610 c 1
 803 627 832 645 848 664 c 0
 865 683 873 705 873 731 c 0xfda0
 873 759 862 782 842 798 c 0
 822 815 794 823 759 823 c 0
746 551 m 1
 705 533 675 514 656 492 c 0
 637 471 628 444 628 414 c 0
 628 381 640 355 663 336 c 0
 686 317 719 308 761 308 c 0
 802 308 835 319 858 338 c 0
 881 357 892 384 892 418 c 0xfe60
 892 445 882 469 860 490 c 0
 838 511 800 531 746 551 c 1
EndSplineSet
Validated: 1
EndChar

StartChar: uni2472
Encoding: 9330 9330 18
Width: 1233
VWidth: 0
Flags: W
HStem: 0 57<449.972 782.128> 252 57<634 820.697> 490 56<694.32 868.119> 820 60<698.466 863.875> 1076 57<449.972 782.128>
VStem: 50 57<399.972 732.128> 397 68<260 796.498> 589 69<578.847 782.077> 918 70<406.031 770.281> 1126 57<399.972 732.128>
LayerCount: 2
Fore
SplineSet
616 1133 m 0
 929 1133 1183 879 1183 566 c 0
 1183 253 929 0 616 0 c 0
 303 0 50 253 50 566 c 0
 50 879 303 1133 616 1133 c 0
616 1076 m 0
 334 1076 107 848 107 566 c 0
 107 284 334 57 616 57 c 0
 898 57 1126 284 1126 566 c 0
 1126 848 898 1076 616 1076 c 0
782 880 m 0
 823 880 860 868 891 847 c 0
 922 826 946 795 963 754 c 0
 980 713 988 665 988 610 c 0
 988 371 896 252 711 252 c 0
 679 252 653 254 634 260 c 1
 634 320 l 1
 656 313 682 309 710 309 c 0
 777 309 827 330 861 371 c 0
 895 412 914 476 917 561 c 1
 912 561 l 1
 897 538 876 520 851 508 c 0
 826 496 797 490 765 490 c 0
 711 490 669 507 637 539 c 0
 605 571 589 616 589 674 c 0
 589 737 607 787 642 824 c 0
 678 861 724 880 782 880 c 0
407 871 m 1
 465 871 l 1
 465 260 l 1
 397 260 l 1
 397 695 l 2
 397 731 399 766 401 798 c 1
 395 792 388 786 381 780 c 0
 374 774 341 746 282 698 c 1
 245 746 l 1
 407 871 l 1
782 820 m 0
 742 820 712 808 690 782 c 0
 668 756 658 721 658 675 c 0
 658 635 668 603 688 580 c 0
 708 557 738 546 779 546 c 0
 804 546 828 551 849 561 c 0
 870 571 887 586 899 604 c 0
 911 622 918 641 918 660 c 0
 918 689 912 715 901 740 c 0
 890 765 874 785 853 799 c 0
 833 813 808 820 782 820 c 0
EndSplineSet
Validated: 1
EndChar

StartChar: uni2473
Encoding: 9331 9331 19
Width: 1233
VWidth: 0
Flags: W
HStem: 0 57<449.972 782.128> 267 63<321 629 765.085 941.46> 816 58<320.939 504.606 777.633 927.635> 1076 57<449.972 782.128>
VStem: 50 57<399.972 732.128> 534 70<604.919 789.941> 656 69<373.886 758.172> 982 70<375.608 757.478> 1126 57<399.972 732.128>
LayerCount: 2
Fore
SplineSet
616 1133 m 0
 929 1133 1183 879 1183 566 c 0
 1183 253 929 0 616 0 c 0
 303 0 50 253 50 566 c 0
 50 879 303 1133 616 1133 c 0
616 1076 m 0
 334 1076 107 848 107 566 c 0
 107 284 334 57 616 57 c 0
 898 57 1126 284 1126 566 c 0
 1126 848 898 1076 616 1076 c 0
853 875 m 0
 918 875 967 849 1001 796 c 0
 1035 743 1052 667 1052 567 c 0
 1052 464 1036 386 1003 335 c 0
 971 284 920 259 853 259 c 0
 789 259 740 285 706 337 c 0
 672 389 656 466 656 567 c 0
 656 671 673 749 705 799 c 0
 737 849 786 875 853 875 c 0
424 874 m 0
 480 874 524 860 556 831 c 0
 588 802 604 764 604 715 c 0
 604 677 593 639 572 602 c 0
 551 565 510 518 452 461 c 2
 321 333 l 1
 321 330 l 1
 629 330 l 1
 629 267 l 1
 236 267 l 1
 236 325 l 1
 393 484 l 2
 441 533 473 567 488 588 c 0
 503 609 515 628 523 648 c 0
 531 668 534 689 534 712 c 0
 534 744 524 769 505 788 c 0
 486 807 459 816 425 816 c 0
 400 816 376 812 354 804 c 0
 332 796 307 781 280 759 c 1
 244 805 l 1
 299 851 359 874 424 874 c 0
853 816 m 0
 808 816 775 796 755 756 c 0
 735 717 725 654 725 567 c 0
 725 480 735 417 755 377 c 0
 775 337 808 317 853 317 c 0
 898 317 931 337 951 377 c 0
 971 417 982 481 982 567 c 0
 982 653 971 716 951 756 c 0
 931 796 898 816 853 816 c 0
EndSplineSet
Validated: 1
EndChar

StartChar: W
Encoding: 87 87 21
Width: 1556
VWidth: 0
Flags: W
HStem: 0 303<620.63 935.37>
VStem: 0 475<528.348 1009.47> 562 43<735 1015.07> 692 43<778 1188.75> 821 43<778 1188.75> 951 43<605 855.836> 1081 475<528.348 857.599>
LayerCount: 2
Fore
SplineSet
778 1556 m 0
 1208 1556 1556 1208 1556 778 c 0
 1556 348 1208 0 778 0 c 0
 348 0 0 348 0 778 c 0
 0 1208 348 1556 778 1556 c 0
778 1253 m 0
 751 1253 737 1232 735 1205 c 1
 735 778 l 1
 692 778 l 1
 692 1147 l 2
 692 1174 675 1195 648 1195 c 0
 621 1195 605 1174 605 1147 c 2
 605 735 l 1
 562 735 l 1
 562 972 l 2
 562 999 546 1021 519 1021 c 0
 492 1021 475 999 475 958 c 2
 475 555 l 2
 475 429 623 303 778 303 c 0
 933 303 1081 429 1081 584 c 2
 1081 812 l 2
 1081 853 1060 860 1033 860 c 0
 1006 860 994 839 994 812 c 2
 994 605 l 1
 951 605 l 1
 951 1147 l 2
 951 1174 935 1195 908 1195 c 4
 881 1195 864 1174 864 1147 c 2
 864 778 l 1
 821 778 l 1
 821 1205 l 2
 821 1232 805 1253 778 1253 c 0
EndSplineSet
Validated: 1
EndChar

StartChar: I
Encoding: 73 73 22
Width: 1556
VWidth: 0
Flags: W
HStem: 0 303<697.672 858.329> 520 110<701 857> 1253 303<678.847 877.153>
LayerCount: 2
Fore
SplineSet
778 1556 m 0
 1208 1556 1556 1208 1556 778 c 0
 1556 348 1208 0 778 0 c 0
 348 0 0 348 0 778 c 0
 0 1208 348 1556 778 1556 c 0
669 1253 m 1
 701 630 l 1
 857 630 l 1
 890 1253 l 1
 669 1253 l 1
779 520 m 0
 742 520 714 510 695 492 c 0
 676 474 666 447 666 411 c 0
 666 377 676 350 696 331 c 0
 716 312 743 303 779 303 c 0
 814 303 840 312 860 331 c 0
 880 351 890 377 890 411 c 0
 890 446 880 473 860 492 c 0
 841 511 814 520 779 520 c 0
EndSplineSet
Validated: 1
EndChar

StartChar: T
Encoding: 84 84 23
Width: 1556
VWidth: 0
Flags: W
HStem: 0 173<693.296 844.333> 384 51<916 922.954> 805 112<721.234 728.81 734.004 767.81 812.004 847> 805 73<696.004 720.906> 843 35<667 696 886 915> 1340 216<637.524 941.018>
VStem: 0 454<563 1031.72> 696 35<571.023 713.678> 734 39<907 915.903> 812 33<805.097 814> 851 35<571.023 713.678> 1128 428<563 1031.72>
LayerCount: 2
Fore
SplineSet
778 1556 m 0xc7f0
 1208 1556 1556 1208 1556 778 c 0
 1556 348 1208 0 778 0 c 0
 348 0 0 348 0 778 c 0
 0 1208 348 1556 778 1556 c 0xc7f0
791 1340 m 0
 615 1340 454 1179 454 1003 c 0
 454 879 505 797 555 717 c 0
 603 640 648 568 648 459 c 0
 648 444 659 433 674 433 c 2
 745 433 l 1
 666 407 l 2
 652 402 644 388 649 374 c 0
 653 363 663 356 674 356 c 0
 677 356 680 356 683 357 c 2
 916 435 l 2
 917 435 918 436 919 436 c 0
 920 436 920 437 921 437 c 0
 922 437 922 438 923 439 c 0
 924 440 924 439 925 440 c 0
 926 441 926 441 927 442 c 0
 928 443 928 443 928 444 c 0
 929 445 930 445 930 446 c 0
 930 447 931 447 931 448 c 0
 931 449 932 450 932 451 c 0
 932 452 933 452 933 453 c 0
 933 454 933 455 933 456 c 0
 933 457 933 458 933 459 c 0
 934 460 l 0
 934 569 979 640 1027 717 c 0
 1077 797 1128 879 1128 1003 c 0
 1128 1179 967 1340 791 1340 c 0
751 917 m 0xe7f0
 752 917 755 916 756 916 c 0
 764 914 769 907 769 899 c 2
 769 896 l 1
 775 907 l 2
 779 914 787 918 795 916 c 0
 803 914 808 907 808 899 c 2
 808 896 l 1
 814 907 l 2
 817 913 823 917 829 917 c 0xe7f0
 830 917 833 916 834 916 c 0
 842 914 847 907 847 899 c 2
 847 896 l 1
 853 907 l 2
 857 914 864 918 872 916 c 0
 880 914 886 907 886 899 c 2
 886 878 l 1
 946 878 l 2
 952 878 958 875 961 869 c 0
 963 866 964 862 964 859 c 0
 964 856 963 853 961 851 c 0
 887 740 886 590 886 589 c 0
 886 579 878 571 868 571 c 0
 858 571 851 579 851 589 c 0
 851 595 852 728 915 843 c 1
 868 843 l 2xcff0
 865 843 863 844 861 845 c 1
 845 814 l 2
 841 807 833 803 825 805 c 0xe7f0
 817 807 812 814 812 822 c 2
 812 825 l 1
 806 814 l 2
 802 807 795 803 787 805 c 0xd7f0
 779 807 773 814 773 822 c 2
 773 825 l 1
 768 814 l 2
 764 807 756 803 748 805 c 0xe7f0
 740 807 734 814 734 822 c 2
 734 825 l 1
 729 814 l 2
 725 807 717 803 709 805 c 0xd7f0
 701 807 696 814 696 822 c 2
 696 843 l 1
 667 843 l 1
 730 728 731 595 731 589 c 0
 731 579 723 571 713 571 c 2
 703 571 696 579 696 589 c 0
 696 590 695 740 621 851 c 0
 619 854 618 857 618 860 c 0
 618 863 619 866 620 869 c 0
 623 875 629 878 635 878 c 2xcff0
 713 878 l 2xd7f0
 716 878 719 877 721 876 c 1
 736 907 l 2
 739 913 745 917 751 917 c 0xe7f0
907 384 m 0
 904 384 902 383 899 382 c 2
 666 305 l 2
 655 301 648 291 648 280 c 0
 648 277 648 274 649 271 c 0
 653 260 663 253 674 253 c 0
 677 253 680 254 683 255 c 2
 916 332 l 2
 927 336 934 346 934 357 c 0
 934 360 933 363 932 366 c 0
 928 377 918 384 907 384 c 0
863 276 m 0
 860 276 858 275 855 274 c 2
 705 224 l 2
 694 220 687 210 687 199 c 0
 687 196 687 194 688 191 c 0
 692 180 702 173 713 173 c 0
 716 173 718 173 721 174 c 2
 872 225 l 2
 883 229 890 239 890 250 c 0
 890 253 890 255 889 258 c 0
 885 269 874 276 863 276 c 0
EndSplineSet
Validated: 1
EndChar

StartChar: N
Encoding: 78 78 24
Width: 1556
VWidth: 0
Flags: W
HStem: 0 289<563 1033.7> 340 53<914.138 1066.94> 1244 312<377 993>
VStem: 0 281<563 1166> 1121 54<447.456 604.803> 1230 326<479 993>
LayerCount: 2
Fore
SplineSet
778 1556 m 0
 1208 1556 1556 1208 1556 778 c 0
 1556 348 1208 0 778 0 c 0
 348 0 0 348 0 778 c 0
 0 1208 348 1556 778 1556 c 0
669 1108 m 2
 602 1186 517 1244 440 1244 c 0
 406 1244 374 1232 346 1207 c 0
 302 1168 281 1124 281 1076 c 0
 281 1021 309 961 363 898 c 2
 794 390 l 2
 848 326 928 289 1005 289 c 0
 1055 289 1103 304 1143 338 c 0
 1202 388 1230 448 1230 510 c 0
 1230 565 1208 622 1167 677 c 0
 768 1146 l 2
 758 1158 741 1159 729 1149 c 0
 717 1139 716 1122 726 1110 c 2
 1124 641 l 2
 1156 603 1175 555 1175 507 c 0
 1175 461 1157 416 1116 379 c 0
 1086 352 1050 340 1012 340 c 0
 948 340 881 374 837 426 c 2
 406 934 l 2
 359 989 333 1036 333 1079 c 0
 333 1112 348 1141 380 1170 c 0
 400 1188 421 1195 443 1195 c 0
 513 1195 586 1120 627 1072 c 1
 1023 609 l 2
 1042 586 1065 555 1065 523 c 0
 1065 504 1056 484 1034 465 c 0
 1021 454 1007 449 993 449 c 0
 950 449 905 493 878 524 c 2
 530 931 l 2
 520 943 503 944 491 934 c 0
 479 924 478 907 488 895 c 2
 836 488 l 2
 889 426 945 393 995 393 c 0
 1022 393 1048 403 1070 422 c 0
 1106 453 1121 486 1121 521 c 0
 1121 562 1099 605 1065 645 c 2
 669 1108 l 2
EndSplineSet
Validated: 1
EndChar

StartChar: B
Encoding: 66 66 25
Width: 2048
VWidth: 0
HStem: 474 72<389 568.866 966.496 1167> 1536 20G<563 993>
VStem: 0 303<528.348 1027.65> 337 52<543.997 1049> 735 43<441 1075.43> 864 130<916 1108> 1167 52<543.008 1049> 1253 303<528.348 1027.65>
LayerCount: 2
Fore
SplineSet
778 1556 m 0
 1208 1556 1556 1208 1556 778 c 0
 1556 348 1208 0 778 0 c 0
 348 0 0 348 0 778 c 0
 0 1208 348 1556 778 1556 c 0
389 1175 m 1
 389 546 l 1
 508 537 620 501 735 441 c 1
 735 1067 l 1
 620 1128 508 1166 389 1175 c 1
1167 1174 m 1
 1123 1171 1037 1164 994 1153 c 1
 994 852 l 1
 929 916 l 1
 864 852 l 1
 864 1108 l 1
 835 1096 807 1084 778 1068 c 1
 778 441 l 1
 893 501 1048 536 1167 545 c 1
 1167 1174 l 1
337 1049 m 1
 325 1048 315 1048 303 1046 c 1
 303 413 l 1
 309 410 314 405 314 405 c 1
 366 412 419 416 472 416 c 0
 561 416 650 404 736 376 c 1
 742 377 749 377 756 377 c 0
 763 377 771 377 777 376 c 1
 863 404 969 416 1070 416 c 0
 1131 416 1190 412 1242 405 c 1
 1242 405 1247 410 1253 413 c 1
 1253 1046 l 1
 1241 1048 1231 1048 1219 1049 c 1
 1219 472 l 1
 1208 473 l 2
 1193 474 1179 474 1163 474 c 0
 1037 474 880 447 766 396 c 1
 756 392 l 1
 747 396 l 1
 633 447 510 474 392 474 c 0
 377 474 363 474 348 473 c 2
 337 472 l 1
 337 1049 l 1
EndSplineSet
Validated: 1
EndChar

StartChar: L
Encoding: 76 76 26
Width: 2048
VWidth: 0
HStem: 0 691<556 1027.65> 821 735<546 1027.65>
VStem: 1253 303<698.401 818.064>
LayerCount: 2
Fore
SplineSet
778 1556 m 1
 1208 1556 1556 1208 1556 778 c 0
 1556 348 1208 0 778 0 c 0
 348 0 0 348 0 778 c 0
 0 1208 348 1556 778 1556 c 1
761 1220 m 1
 303 761 l 1
 761 303 l 1
 853 394 l 1
 556 691 l 1
 1253 691 l 1
 1253 821 l 1
 546 821 l 1
 853 1128 l 1
 761 1220 l 1
EndSplineSet
Validated: 1
EndChar

StartChar: R
Encoding: 82 82 27
Width: 2048
VWidth: 0
HStem: 0 691<528.348 1000> 821 735<528.348 1010>
VStem: 0 303<698.401 818.064>
LayerCount: 2
Fore
SplineSet
778 1556 m 0
 1208 1556 1556 1208 1556 778 c 0
 1556 348 1208 0 778 0 c 0
 348 0 0 348 0 778 c 0
 0 1208 348 1556 778 1556 c 0
795 1220 m 1
 703 1128 l 1
 1010 821 l 1
 303 821 l 1
 303 691 l 1
 1000 691 l 1
 703 394 l 1
 795 303 l 1
 1253 761 l 1
 795 1220 l 1
EndSplineSet
Validated: 1
EndChar

StartChar: D
Encoding: 68 68 28
Width: 2048
VWidth: 0
HStem: 0 389<564.899 1027.65> 475 87<562 1253> 648 87<562 1253> 821 87<562 1253> 994 87<562 1253> 1167 389<528.348 1027.65>
VStem: 0 281<544.966 1184> 411 64<562.421 647.579 1081.42 1166.58> 1253 303<564.899 648 735 821 908 991.101>
LayerCount: 2
Fore
SplineSet
778 1556 m 0
 1208 1556 1556 1208 1556 778 c 0
 1556 348 1208 0 778 0 c 0
 348 0 0 348 0 778 c 0
 0 1208 348 1556 778 1556 c 0
346 1189 m 0
 310 1189 281 1160 281 1124 c 0
 281 1088 310 1059 346 1059 c 0
 382 1059 411 1088 411 1124 c 0
 411 1160 382 1189 346 1189 c 0
475 1167 m 1
 475 1081 l 1
 1253 1081 l 1
 1253 1167 l 1
 475 1167 l 1
562 994 m 1
 562 908 l 1
 1253 908 l 1
 1253 994 l 1
 562 994 l 1
562 821 m 1
 562 735 l 1
 1253 735 l 1
 1253 821 l 1
 562 821 l 1
346 670 m 0
 310 670 281 641 281 605 c 0
 281 569 310 540 346 540 c 0
 382 540 411 569 411 605 c 0
 411 641 382 670 346 670 c 0
475 648 m 1
 475 562 l 1
 1253 562 l 1
 1253 648 l 1
 475 648 l 1
562 475 m 1
 562 389 l 1
 1253 389 l 1
 1253 475 l 1
 562 475 l 1
EndSplineSet
Validated: 1
EndChar

StartChar: F
Encoding: 70 70 29
Width: 2048
VWidth: 0
HStem: 0 562<522.59 867.181> 648 562<475.108 778.066> 1296 260<523.251 799.631>
VStem: 0 259<756.016 1032.75> 346 562<777.108 1080.89> 994 562<688.773 1033.08>
LayerCount: 2
Fore
SplineSet
778 1556 m 0
 1208 1556 1556 1208 1556 778 c 0
 1556 348 1208 0 778 0 c 0
 348 0 0 348 0 778 c 0
 0 1208 348 1556 778 1556 c 0
627 1296 m 0
 533 1296 439 1261 367 1189 c 0
 295 1117 259 1023 259 929 c 0
 259 835 295 741 367 669 c 0
 439 597 531 562 625 562 c 0
 699 562 773 584 836 628 c 1
 1146 318 l 1
 1238 409 l 1
 928 720 l 1
 972 783 994 856 994 930 c 0
 994 1024 958 1117 886 1189 c 0
 814 1261 721 1296 627 1296 c 0
627 1210 m 0
 699 1210 770 1183 825 1128 c 0
 880 1073 908 1001 908 929 c 0
 908 857 880 785 825 730 c 0
 770 675 699 648 627 648 c 0
 555 648 483 675 428 730 c 0
 373 785 346 857 346 929 c 0
 346 1001 373 1073 428 1128 c 0
 483 1183 555 1210 627 1210 c 0
EndSplineSet
Validated: 1
EndChar

StartChar: S
Encoding: 83 83 30
Width: 2820
VWidth: 0
Flags: W
HStem: -17 144<886.838 1103.46> -0 147<54.6462 484.29 1392 1835.29 2196.76 2643.93> -0 11<2746.15 2787.66> 29 50<2747 2758 2778 2787.56> 45 10<2758 2767> 70 9<2758 2776.78> 95 11<2746.15 2787.66> 262 154<220.266 485.973 1571.27 1836.97 2194.93 2471.9> 297 147<159.027 425.734 1511.02 1776.73> 558 147<160.71 604 1511.71 1955 2196.76 2643.93>
VStem: 0 157<448.675 555.41> 489 156<150.182 257.271> 684 153<180.726 706> 1154 153<180.726 706> 1351 157<448.675 555.41> 1840 156<150.182 257.271> 2037 156<152.439 259.709 371 553.496> 2713 11<32.7758 73.2242> 2747 11<29 45 55 70> 2778 12<55.4217 69.4631> 2809 11<32.3328 73.6672>
LayerCount: 2
Fore
SplineSet
684 706 m 1x807ff8
 837 706 l 1
 837 286 l 2
 837 198 907 127 995 127 c 0
 1083 127 1154 198 1154 286 c 2
 1154 706 l 1
 1307 706 l 1
 1307 295 l 2
 1307 123 1167 -17 995 -17 c 0
 823 -17 684 123 684 295 c 2
 684 706 l 1x807ff8
211 705 m 1
 604 705 l 1
 604 558 l 1
 210 558 l 2
 186 558 157 539 157 505 c 0
 157 471 178 451 220 444 c 0
 222 444 461 408 463 408 c 0
 590 388 645 293 645 201 c 0
 645 95 559 0 434 -0 c 2x40fff8
 27 -0 l 1x207ff8
 27 13 l 2
 27 101 89 146 118 146 c 2
 435 147 l 2
 459 147 489 167 489 201 c 0
 489 235 468 255 426 262 c 0x417ff8
 424 262 184 297 182 297 c 0x00fff8
 55 317 0 413 0 505 c 0
 0 611 86 705 211 705 c 1
1562 705 m 1
 1955 705 l 1
 1955 558 l 1
 1561 558 l 2
 1537 558 1508 539 1508 505 c 0
 1508 471 1529 451 1571 444 c 0x00fff8
 1573 444 1812 408 1814 408 c 0
 1941 388 1996 293 1996 201 c 0
 1996 95 1910 0 1785 -0 c 2
 1392 -0 l 1
 1392 147 l 1
 1786 147 l 2
 1810 147 1840 167 1840 201 c 0
 1840 235 1819 255 1777 262 c 0x417ff8
 1775 262 1536 297 1534 297 c 0
 1407 317 1351 413 1351 505 c 0
 1351 611 1437 705 1562 705 c 1
2247 705 m 2
 2674 705 l 1
 2674 692 l 2
 2674 604 2612 558 2554 558 c 2
 2247 558 l 2
 2223 558 2193 539 2193 505 c 2
 2193 371 l 1
 2193 371 2217 416 2275 416 c 2
 2595 416 l 1
 2574 334 2506 262 2389 262 c 2
 2256 262 l 2
 2215 262 2193 235 2193 201 c 0
 2193 167 2223 147 2247 147 c 0
 2315 147 2384 147 2452 147 c 0
 2486 147 2520 147 2554 147 c 0x417ff8
 2612 146 2674 101 2674 13 c 2
 2674 -0 l 1x207ff8
 2247 -0 l 2x407ff8
 2122 0 2037 95 2037 201 c 2
 2037 505 l 2
 2037 611 2122 705 2247 705 c 2
2767 106 m 0x227ff8
 2797 106 2820 82 2820 53 c 0
 2820 24 2797 0 2767 -0 c 0
 2737 0 2713 24 2713 53 c 0
 2713 82 2737 106 2767 106 c 0x227ff8
2767 95 m 0
 2743 95 2724 76 2724 53 c 0
 2724 30 2743 11 2767 11 c 0
 2791 11 2809 30 2809 53 c 0
 2809 76 2791 95 2767 95 c 0
2747 79 m 1x107ff8
 2770 79 l 2x047ff8
 2782 79 2790 73 2790 63 c 0
 2790 55 2785 49 2779 47 c 1
 2791 29 l 1
 2778 29 l 1x107ff8
 2767 45 l 1
 2758 45 l 1x087ff8
 2758 29 l 1
 2747 29 l 1
 2747 79 l 1x107ff8
2758 70 m 1
 2758 55 l 1
 2769 55 l 2x0c7ff8
 2775 55 2778 58 2778 62 c 0
 2778 67 2774 70 2769 70 c 2
 2758 70 l 1
EndSplineSet
Validated: 1
EndChar

StartChar: G
Encoding: 71 71 31
Width: 574
VWidth: 0
Flags: W
HStem: 576 109<206.357 453.802> 749 89<292.999 415.113> 934 94<300.386 452.961> 986 570<896.462 1145.06> 1001 100<1605.97 1832.13> 1143 50<1664.57 1804.33> 1229 73<1714.35 1784.43> 1350 40<1713.63 1784.12>
VStem: 0 127<765.38 1017.65> 200 92<838.836 918.135> 483 101<725.129 905.206> 732 141<777 840.783> 1653 60<1304 1349.31> 1785 29<1306.84 1345.16>
LayerCount: 2
Fore
SplineSet
918 1556 m 0xd0fc
 953 1556 985 1555 1015 1554 c 0
 1203 1547 1404 1483 1431 1474 c 1
 1431 1480 1432 1535 1432 1536 c 0
 1432 1538 1433 1538 1434 1538 c 0
 1435 1538 l 1
 1448 1536 1717 1496 1831 1430 c 0
 1845 1422 1852 1413 1861 1404 c 0
 1891 1373 1927 1253 1937 1217 c 0
 1937 1216 1938 1216 1938 1215 c 0
 1938 1208 1929 1201 1926 1199 c 0
 1902 1182 1847 1143 1775 1143 c 0
 1769 1143 1764 1143 1758 1144 c 0
 1687 1150 1593 1192 1481 1266 c 1
 1515 1187 l 1
 1531 1179 1684 1101 1762 1101 c 0
 1763 1101 1764 1101 1765 1101 c 0
 1828 1102 1894 1133 1921 1149 c 1
 1921 1149 1925 1151 1928 1151 c 0
 1930 1151 1932 1150 1932 1146 c 0
 1932 1145 1931 1143 1931 1141 c 0
 1926 1121 1923 1101 1909 1087 c 0
 1894 1072 1868 1061 1829 1044 c 0
 1770 1018 1690 1001 1601 1001 c 0
 1598 1001 1596 1001 1593 1001 c 0xccfc
 1560 1001 1528 1006 1500 1009 c 0
 1473 1012 1449 1015 1428 1015 c 0
 1381 1015 1349 1001 1340 948 c 0
 1339 941 1339 934 1339 927 c 0
 1339 879 1364 826 1398 777 c 1
 1249 777 l 1
 1200 864 1178 986 1004 986 c 0xd0fc
 891 986 864 907 864 842 c 0
 864 816 868 792 873 777 c 1
 732 777 l 1
 674 988 521 1079 419 1097 c 0
 402 1100 382 1102 360 1102 c 0
 289 1102 200 1079 147 980 c 0
 133 954 127 925 127 895 c 0
 127 861 135 827 152 795 c 0
 184 734 242 694 310 687 c 0
 321 686 331 685 341 685 c 0
 393 685 433 701 457 732 c 0
 474 754 483 782 483 809 c 0
 483 827 479 845 471 862 c 0
 449 906 416 930 370 934 c 0
 367 934 364 934 361 934 c 0
 331 934 308 921 300 907 c 0
 296 899 292 892 292 881 c 0
 293 848 319 838 329 838 c 0
 342 838 348 841 365 846 c 0
 369 847 373 848 377 848 c 0
 398 848 415 830 416 803 c 0
 416 802 416 802 416 801 c 0
 416 789 409 775 394 765 c 0
 388 761 382 759 376 757 c 0
 359 751 342 749 327 749 c 0
 274 749 201 795 200 880 c 0
 200 928 223 972 266 1000 c 0
 291 1017 326 1028 365 1028 c 0xe0fc
 401 1028 440 1018 478 995 c 0
 552 950 584 872 584 802 c 0
 584 780 581 760 575 741 c 0
 541 636 452 576 333 576 c 0
 322 576 310 577 299 578 c 0
 203 587 113 637 60 714 c 0
 36 748 18 785 9 823 c 0
 2 849 0 876 0 901 c 0
 0 960 14 1013 26 1042 c 0
 78 1167 190 1286 322 1372 c 0
 570 1533 767 1556 918 1556 c 0xd0fc
1731 1424 m 0
 1702 1424 1675 1413 1654 1393 c 0
 1631 1372 1618 1344 1617 1313 c 0
 1617 1312 1617 1310 1617 1309 c 0
 1617 1247 1666 1195 1729 1193 c 0
 1730 1193 1732 1193 1733 1193 c 0
 1763 1193 1791 1204 1812 1224 c 0
 1834 1245 1847 1274 1848 1305 c 0
 1848 1306 1848 1308 1848 1309 c 0
 1848 1371 1800 1422 1737 1424 c 0
 1736 1424 1735 1424 1734 1424 c 0
 1733 1424 1732 1424 1731 1424 c 0
1732 1390 m 0xc3fc
 1733 1390 1735 1390 1736 1390 c 0
 1779 1388 1814 1353 1814 1309 c 0
 1814 1307 l 0
 1813 1286 1804 1266 1788 1251 c 0
 1773 1237 1755 1229 1734 1229 c 0
 1733 1229 1731 1229 1730 1229 c 0
 1687 1230 1653 1267 1653 1310 c 0
 1653 1312 l 0
 1654 1334 1662 1354 1678 1369 c 0
 1693 1383 1712 1390 1732 1390 c 0xc3fc
1749 1350 m 0
 1729 1350 1713 1339 1713 1326 c 0
 1713 1313 1729 1302 1749 1302 c 0
 1769 1302 1785 1313 1785 1326 c 0
 1785 1339 1769 1350 1749 1350 c 0
EndSplineSet
Validated: 1
EndChar

StartChar: uni2197
Encoding: 8599 8599 32
Width: 1233
VWidth: 0
Flags: W
HStem: 0 103<163 575> 515 103<163 423> 946 187<355 848>
VStem: 60 103<103 515> 575 103<103 408> 988 185<306 824>
LayerCount: 2
Fore
SplineSet
355 1133 m 1
 1173 1133 l 1
 1173 306 l 1
 988 306 l 1
 988 824 l 1
 678 512 l 1
 678 0 l 1
 60 0 l 1
 60 618 l 1
 524 618 l 1
 848 946 l 1
 355 946 l 1
 355 1133 l 1
163 515 m 1
 163 103 l 1
 575 103 l 1
 575 408 l 1
 371 203 l 1
 243 332 l 1
 423 515 l 1
 163 515 l 1
EndSplineSet
EndChar

